<svg xmlns="http://www.w3.org/2000/svg" viewBox="0 0 600 400" fill="none">
  <rect width="600" height="400" rx="32" fill="#06150F"/>
  <rect x="24" y="24" width="552" height="352" rx="24" stroke="#10B981" stroke-opacity=".22"/>
  <rect x="96" y="92" width="126" height="74" rx="16" fill="#0B2A1E" stroke="#34D399" stroke-width="6"/>
  <rect x="374" y="92" width="126" height="74" rx="16" fill="#0B2A1E" stroke="#6EE7B7" stroke-width="6"/>
  <rect x="234" y="234" width="132" height="78" rx="16" fill="#0B2A1E" stroke="#10B981" stroke-width="6"/>
  <path d="M222 128h54m98 0h-54M300 166v58" stroke="#A7F3D0" stroke-width="8" stroke-linecap="round"/>
  <circle cx="300" cy="128" r="18" fill="#34D399"/>
  <circle cx="232" cy="128" r="10" fill="#A7F3D0"/>
  <circle cx="368" cy="128" r="10" fill="#A7F3D0"/>
  <path d="M124 266c28-18 58-26 92-26m168 0c34 0 64 8 92 26" stroke="#10B981" stroke-width="8" stroke-linecap="round" stroke-opacity=".55"/>
  <circle cx="500" cy="76" r="58" fill="url(#a)" fill-opacity=".45"/>
  <defs>
    <radialGradient id="a" cx="0" cy="0" r="1" gradientTransform="translate(500 76) rotate(90) scale(58)" gradientUnits="userSpaceOnUse">
      <stop stop-color="#A7F3D0"/>
      <stop offset="1" stop-color="#A7F3D0" stop-opacity="0"/>
    </radialGradient>
  </defs>
</svg>
