<svg xmlns="http://www.w3.org/2000/svg" xmlns:xlink="http://www.w3.org/1999/xlink" width="2000" zoomAndPan="magnify" viewBox="0 0 1500 1499.999933" height="2000" preserveAspectRatio="xMidYMid meet" version="1.0"><defs><g/><clipPath id="29a1b9b155"><rect x="0" width="494" y="0" height="807"/></clipPath><clipPath id="6a143b6749"><rect x="0" width="490" y="0" height="805"/></clipPath></defs><g transform="matrix(1, 0, 0, 1, 706, 372)"><g clip-path="url(#29a1b9b155)"><g fill="#f93d3a" fill-opacity="1"><g transform="translate(0.220012, 640.723991)"><g><path d="M 127.65625 -459.1875 C 149.695312 -461.644531 171.023438 -463.484375 191.640625 -464.703125 C 201.835938 -465.316406 213.46875 -465.625 226.53125 -465.625 C 238.164062 -465.820312 249.597656 -465.515625 260.828125 -464.703125 C 273.066406 -463.890625 283.78125 -462.867188 292.96875 -461.640625 C 303.78125 -459.804688 312.757812 -457.867188 319.90625 -455.828125 C 328.675781 -452.972656 335.410156 -450.113281 340.109375 -447.25 C 357.660156 -436.226562 371.84375 -422.960938 382.65625 -407.453125 C 393.269531 -391.742188 394.597656 -373.476562 386.640625 -352.65625 C 386.023438 -350.820312 385.3125 -349.085938 384.5 -347.453125 C 377.5625 -331.742188 367.050781 -317.5625 352.96875 -304.90625 C 351.738281 -303.675781 349.898438 -302.039062 347.453125 -300 C 346.234375 -298.976562 344.191406 -297.453125 341.328125 -295.421875 C 342.765625 -294.804688 344.296875 -294.296875 345.921875 -293.890625 C 347.347656 -293.273438 348.878906 -292.765625 350.515625 -292.359375 C 351.941406 -291.742188 353.472656 -291.234375 355.109375 -290.828125 C 356.535156 -290.210938 357.960938 -289.703125 359.390625 -289.296875 C 374.703125 -282.960938 388.378906 -275.71875 400.421875 -267.5625 C 402.046875 -266.539062 404.492188 -264.804688 407.765625 -262.359375 C 420.210938 -252.960938 431.742188 -242.039062 442.359375 -229.59375 C 452.972656 -216.9375 460.015625 -202.957031 463.484375 -187.65625 C 464.296875 -183.375 464.90625 -179.085938 465.3125 -174.796875 C 466.945312 -140.304688 457.148438 -112.550781 435.921875 -91.53125 C 414.492188 -70.507812 388.78125 -54.488281 358.78125 -43.46875 C 347.757812 -39.382812 334.492188 -35.300781 318.984375 -31.21875 C 302.660156 -26.9375 287.765625 -23.671875 274.296875 -21.421875 C 253.878906 -17.546875 233.0625 -14.078125 211.84375 -11.015625 C 190.414062 -7.753906 169.394531 -4.59375 148.78125 -1.53125 C 145.507812 -0.71875 140.609375 -0.207031 134.078125 0 L 119.078125 0 C 101.328125 0 86.535156 -2.140625 74.703125 -6.421875 C 62.660156 -10.503906 52.554688 -20.503906 44.390625 -36.421875 C 39.898438 -44.992188 36.226562 -54.078125 33.375 -63.671875 C 30.3125 -73.054688 27.757812 -82.445312 25.71875 -91.84375 C 15.914062 -132.863281 9.484375 -176.4375 6.421875 -222.5625 C 3.367188 -268.476562 3.675781 -312.457031 7.34375 -354.5 C 8.570312 -366.738281 10.101562 -377.453125 11.9375 -386.640625 C 11.9375 -387.453125 12.039062 -388.269531 12.25 -389.09375 C 12.445312 -389.90625 12.648438 -390.820312 12.859375 -391.84375 C 12.859375 -392.457031 13.0625 -393.273438 13.46875 -394.296875 C 13.675781 -395.109375 13.878906 -395.925781 14.078125 -396.75 C 14.484375 -398.175781 14.894531 -399.910156 15.3125 -401.953125 C 16.125 -404.597656 16.632812 -406.332031 16.84375 -407.15625 C 19.695312 -416.132812 23.367188 -423.988281 27.859375 -430.71875 C 32.140625 -437.457031 39.179688 -442.5625 48.984375 -446.03125 C 50.203125 -446.4375 51.425781 -446.84375 52.65625 -447.25 C 53.875 -447.457031 55.097656 -447.867188 56.328125 -448.484375 C 77.347656 -452.765625 101.125 -456.332031 127.65625 -459.1875 Z M 140.203125 -325.71875 C 140.203125 -325.3125 140.304688 -324.90625 140.515625 -324.5 C 140.515625 -324.09375 140.515625 -323.785156 140.515625 -323.578125 C 140.515625 -323.171875 140.613281 -322.765625 140.8125 -322.359375 C 140.8125 -321.941406 140.8125 -321.632812 140.8125 -321.4375 L 141.4375 -319.296875 C 143.0625 -311.335938 148.570312 -307.5625 157.96875 -307.96875 C 167.144531 -308.375 175.101562 -309.703125 181.84375 -311.953125 C 182.65625 -312.359375 183.367188 -312.5625 183.984375 -312.5625 C 184.191406 -312.5625 184.5 -312.660156 184.90625 -312.859375 C 185.101562 -313.066406 185.410156 -313.273438 185.828125 -313.484375 C 187.046875 -313.890625 187.757812 -314.09375 187.96875 -314.09375 C 200.207031 -319.394531 209.898438 -328.171875 217.046875 -340.421875 C 223.984375 -352.660156 224.085938 -364.597656 217.359375 -376.234375 C 216.941406 -376.640625 216.734375 -376.945312 216.734375 -377.15625 C 216.535156 -377.15625 216.332031 -377.253906 216.125 -377.453125 C 215.925781 -377.660156 215.828125 -377.863281 215.828125 -378.0625 C 207.660156 -389.289062 194.695312 -394.90625 176.9375 -394.90625 C 176.332031 -394.90625 175.820312 -394.800781 175.40625 -394.59375 L 172.046875 -394.59375 C 171.640625 -394.59375 171.332031 -394.59375 171.125 -394.59375 C 170.914062 -394.394531 170.710938 -394.296875 170.515625 -394.296875 C 166.835938 -393.890625 162.039062 -392.765625 156.125 -390.921875 C 151.84375 -389.703125 147.96875 -387.359375 144.5 -383.890625 L 143.875 -383.28125 L 143.875 -382.046875 L 143.578125 -381.75 C 143.367188 -381.539062 143.265625 -381.332031 143.265625 -381.125 L 142.96875 -380.828125 C 142.96875 -380.617188 142.863281 -380.414062 142.65625 -380.21875 L 142.65625 -379.90625 C 142.65625 -379.695312 142.453125 -379.390625 142.046875 -378.984375 C 142.046875 -378.367188 141.941406 -377.960938 141.734375 -377.765625 C 141.734375 -377.148438 141.632812 -376.742188 141.4375 -376.546875 C 141.019531 -369.191406 140.710938 -361.84375 140.515625 -354.5 C 140.304688 -346.945312 140.203125 -339.5 140.203125 -332.15625 Z M 178.46875 -70.109375 C 181.738281 -69.691406 185.207031 -69.484375 188.875 -69.484375 C 191.738281 -69.285156 196.945312 -69.390625 204.5 -69.796875 C 217.757812 -70.410156 231.632812 -72.25 246.125 -75.3125 C 260.414062 -78.164062 273.171875 -83.265625 284.390625 -90.609375 C 303.367188 -103.054688 311.328125 -120 308.265625 -141.4375 C 307.859375 -143.0625 307.65625 -144.179688 307.65625 -144.796875 C 307.457031 -145.203125 307.253906 -145.710938 307.046875 -146.328125 C 306.835938 -146.734375 306.734375 -147.242188 306.734375 -147.859375 C 302.453125 -162.753906 293.984375 -173.976562 281.328125 -181.53125 C 268.472656 -188.882812 253.578125 -192.5625 236.640625 -192.5625 C 230.304688 -192.5625 223.976562 -192.253906 217.65625 -191.640625 C 204.394531 -190.617188 192.148438 -188.679688 180.921875 -185.828125 C 175.410156 -184.191406 170.515625 -182.660156 166.234375 -181.234375 C 161.535156 -179.191406 158.269531 -177.25 156.4375 -175.40625 C 153.988281 -173.363281 152.96875 -171.222656 153.375 -168.984375 C 153.78125 -165.921875 154.59375 -161.53125 155.8125 -155.8125 C 159.894531 -133.976562 164.894531 -113.0625 170.8125 -93.0625 C 172.039062 -88.78125 173.367188 -84.90625 174.796875 -81.4375 C 175.410156 -79.59375 176.023438 -77.753906 176.640625 -75.921875 C 177.253906 -73.878906 177.863281 -71.941406 178.46875 -70.109375 Z M 178.46875 -70.109375 "/></g></g></g></g></g><g transform="matrix(1, 0, 0, 1, 403, 374)"><g clip-path="url(#6a143b6749)"><g fill="#3d98d6" fill-opacity="1"><g transform="translate(0.30078, 639.26082)"><g><path d="M 5.515625 -357.25 C 6.734375 -373.164062 8.769531 -383.773438 11.625 -389.078125 C 14.28125 -394.390625 23.976562 -401.941406 40.71875 -411.734375 C 85.40625 -437.453125 138.566406 -452.046875 200.203125 -455.515625 C 261.628906 -458.773438 313.363281 -441.9375 355.40625 -405 C 374.789062 -387.851562 390.195312 -365.8125 401.625 -338.875 C 412.851562 -311.726562 412.34375 -285.8125 400.09375 -261.125 C 395 -250.71875 388.0625 -242.25 379.28125 -235.71875 C 370.507812 -228.976562 362.753906 -221.222656 356.015625 -212.453125 C 350.097656 -204.691406 347.445312 -196.320312 348.0625 -187.34375 C 348.257812 -180.8125 349.484375 -174.691406 351.734375 -168.984375 C 353.566406 -163.472656 356.015625 -158.265625 359.078125 -153.359375 C 362.140625 -148.054688 365.710938 -143.363281 369.796875 -139.28125 C 374.285156 -134.59375 378.773438 -130.515625 383.265625 -127.046875 C 386.941406 -123.984375 392.046875 -120.304688 398.578125 -116.015625 C 402.046875 -113.773438 407.453125 -110.410156 414.796875 -105.921875 C 417.453125 -104.078125 420.207031 -102.441406 423.0625 -101.015625 C 425.71875 -99.390625 428.472656 -97.757812 431.328125 -96.125 C 438.671875 -92.039062 444.078125 -88.976562 447.546875 -86.9375 C 458.160156 -80.40625 459.894531 -72.039062 452.75 -61.84375 C 446.832031 -53.269531 438.671875 -44.285156 428.265625 -34.890625 C 417.859375 -25.304688 408.164062 -17.757812 399.1875 -12.25 C 387.550781 -4.894531 374.488281 -4.179688 360 -10.109375 C 337.34375 -19.085938 314.179688 -37.144531 290.515625 -64.28125 C 266.628906 -91.21875 247.648438 -112.238281 233.578125 -127.34375 C 225.410156 -135.300781 217.144531 -140.8125 208.78125 -143.875 C 200.207031 -146.9375 190.921875 -143.875 180.921875 -134.6875 C 170.304688 -124.6875 166.117188 -106.628906 168.359375 -80.515625 C 170.398438 -54.390625 172.648438 -34.898438 175.109375 -22.046875 C 176.328125 -14.085938 175.40625 -8.984375 172.34375 -6.734375 C 169.082031 -4.285156 164.082031 -2.65625 157.34375 -1.84375 C 149.59375 -0.820312 140.921875 -0.3125 131.328125 -0.3125 C 121.523438 -0.101562 112.75 -0.304688 105 -0.921875 C 99.488281 -1.328125 93.976562 -2.144531 88.46875 -3.375 C 82.75 -4.382812 77.953125 -7.132812 74.078125 -11.625 C 65.921875 -20.195312 56.941406 -41.320312 47.140625 -75 C 37.140625 -108.46875 30.8125 -131.53125 28.15625 -144.1875 C 27.550781 -146.425781 27.039062 -148.769531 26.625 -151.21875 C 26.019531 -153.46875 25.515625 -155.816406 25.109375 -158.265625 C 18.578125 -188.472656 12.960938 -221.125 8.265625 -256.21875 C 3.566406 -291.125 2.648438 -324.800781 5.515625 -357.25 Z M 245.203125 -351.125 C 222.347656 -357.65625 198.570312 -356.53125 173.875 -347.75 C 162.039062 -343.257812 153.878906 -335.300781 149.390625 -323.875 C 146.941406 -317.144531 146.632812 -306.632812 148.46875 -292.34375 C 150.300781 -278.0625 153.460938 -268.367188 157.953125 -263.265625 C 167.347656 -252.453125 180.71875 -247.757812 198.0625 -249.1875 C 206.425781 -250 215.097656 -251.320312 224.078125 -253.15625 C 232.859375 -255 241.125 -257.753906 248.875 -261.421875 C 261.9375 -267.546875 271.328125 -277.851562 277.046875 -292.34375 C 282.753906 -306.632812 280.8125 -320.207031 271.21875 -333.0625 C 264.082031 -342.039062 255.410156 -348.0625 245.203125 -351.125 Z M 245.203125 -351.125 "/></g></g></g></g></g></svg>